<svg width="78" height="78" viewBox="0 0 78 78" fill="none" xmlns="http://www.w3.org/2000/svg">
<path fill-rule="evenodd" clip-rule="evenodd" d="M33.15 7.8C30.3244 7.8 27.9588 9.80725 27.4171 12.4758C26.9886 14.5867 24.93 15.9505 22.8192 15.522C20.7083 15.0936 19.3445 13.035 19.773 10.9242C21.038 4.69201 26.5417 0 33.15 0C40.6887 0 46.8 6.1113 46.8 13.65C46.8 21.1887 40.6887 27.3 33.15 27.3H11.7C9.54611 27.3 7.8 25.5539 7.8 23.4C7.8 21.2461 9.54611 19.5 11.7 19.5H33.15C36.3808 19.5 39 16.8809 39 13.65C39 10.4191 36.3808 7.8 33.15 7.8ZM64.35 23.4C61.5245 23.4 59.1587 25.4073 58.617 28.0758C58.1888 30.1867 56.13 31.5506 54.0193 31.122C51.9082 30.6936 50.5444 28.635 50.973 26.5242C52.2382 20.292 57.7418 15.6 64.35 15.6C71.8887 15.6 78 21.7113 78 29.25C78 36.7887 71.8887 42.9 64.35 42.9H3.9C1.74611 42.9 0 41.154 0 39C0 36.846 1.74611 35.1 3.9 35.1H64.35C67.5808 35.1 70.2 32.4808 70.2 29.25C70.2 26.0191 67.5808 23.4 64.35 23.4ZM43.017 65.5243C43.5587 68.1927 45.9244 70.2 48.75 70.2C51.9808 70.2 54.6 67.5808 54.6 64.35C54.6 61.1192 51.9808 58.5 48.75 58.5H23.4C21.2461 58.5 19.5 56.754 19.5 54.6C19.5 52.446 21.2461 50.7 23.4 50.7H48.75C56.2887 50.7 62.4 56.8113 62.4 64.35C62.4 71.8887 56.2887 78 48.75 78C42.1418 78 36.6382 73.3079 35.373 67.0757C34.9444 64.965 36.3082 62.9066 38.4193 62.478C40.53 62.0494 42.5888 63.4132 43.017 65.5243Z" fill="white"/>
</svg>
