<svg width="27" height="27" viewBox="0 0 27 27" fill="none" xmlns="http://www.w3.org/2000/svg">
<path fill-rule="evenodd" clip-rule="evenodd" d="M15.747 1.22182C14.4064 -0.407275 11.912 -0.407273 10.5713 1.22182L10.1382 1.74802C9.429 2.60984 8.33729 3.06204 7.22639 2.95415L6.5481 2.88828C4.44815 2.68434 2.68434 4.44814 2.88828 6.54809L2.95415 7.22638C3.06204 8.33728 2.60984 9.429 1.74802 10.1382L1.22182 10.5713C-0.407275 11.912 -0.407273 14.4064 1.22182 15.747L1.74802 16.1801C2.60984 16.8893 3.06204 17.981 2.95415 19.0919L2.88828 19.7702C2.68434 21.8702 4.44814 23.634 6.54809 23.43L7.22638 23.3642C8.33728 23.2563 9.429 23.7085 10.1382 24.5703L10.5713 25.0965C11.912 26.7256 14.4064 26.7256 15.747 25.0965L16.1801 24.5703C16.8893 23.7085 17.981 23.2563 19.0919 23.3642L19.7702 23.43C21.8702 23.634 23.634 21.8702 23.43 19.7702L23.3642 19.0919C23.2563 17.981 23.7085 16.8893 24.5703 16.1801L25.0965 15.747C26.7256 14.4064 26.7256 11.912 25.0965 10.5713L24.5703 10.1382C23.7085 9.429 23.2563 8.33729 23.3642 7.22639L23.43 6.5481C23.634 4.44814 21.8702 2.68434 19.7702 2.88828L19.0919 2.95415C17.981 3.06204 16.8893 2.60984 16.1801 1.74802L15.747 1.22182ZM13.9249 3.99126C13.6302 3.32746 12.6881 3.32746 12.3934 3.99126L11.1482 6.79551C10.967 7.20346 10.4979 7.39779 10.0814 7.23741L7.21797 6.13498C6.54017 5.87402 5.87402 6.54017 6.13498 7.21797L7.23741 10.0814C7.39779 10.4979 7.20346 10.967 6.79551 11.1482L3.99126 12.3934C3.32746 12.6881 3.32746 13.6302 3.99126 13.9249L6.79551 15.1701C7.20346 15.3513 7.39779 15.8204 7.23741 16.237L6.13498 19.1004C5.87402 19.7782 6.54017 20.4443 7.21797 20.1833L10.0814 19.0809C10.4979 18.9205 10.967 19.1149 11.1482 19.5228L12.3934 22.3271C12.6881 22.9909 13.6302 22.9909 13.9249 22.3271L15.1701 19.5228C15.3513 19.1149 15.8204 18.9205 16.237 19.0809L19.1004 20.1833C19.7782 20.4443 20.4443 19.7781 20.1833 19.1003L19.0809 16.237C18.9205 15.8204 19.1149 15.3513 19.5228 15.1701L22.3271 13.9249C22.9909 13.6302 22.9909 12.6881 22.3271 12.3934L19.5228 11.1482C19.1149 10.967 18.9205 10.4979 19.0809 10.0814L20.1833 7.21797C20.4443 6.54017 19.7781 5.87402 19.1003 6.13498L16.237 7.23741C15.8204 7.39779 15.3513 7.20346 15.1701 6.79551L13.9249 3.99126Z" fill="#010B17"/>
</svg>
