<svg width="1360" height="339" viewBox="0 0 1360 339" fill="none" xmlns="http://www.w3.org/2000/svg">
<mask id="path-1-inside-1_70_634" fill="white">
<path d="M0 260.569C0 269.091 6.90869 276 15.4309 276H193.764C202.287 276 209.195 282.909 209.195 291.431V323.569C209.195 332.091 216.104 339 224.626 339H1344.57C1353.09 339 1360 332.091 1360 323.569V184.116C1360 184.052 1359.95 184 1359.88 184C1359.82 184 1359.77 183.948 1359.77 183.884V15.4309C1359.77 6.90867 1352.86 0 1344.34 0H15.4309C6.90857 0 0 6.90868 0 15.431V260.569Z"/>
</mask>
<path d="M0 260.569C0 269.091 6.90869 276 15.4309 276H193.764C202.287 276 209.195 282.909 209.195 291.431V323.569C209.195 332.091 216.104 339 224.626 339H1344.57C1353.09 339 1360 332.091 1360 323.569V184.116C1360 184.052 1359.95 184 1359.88 184C1359.82 184 1359.77 183.948 1359.77 183.884V15.4309C1359.77 6.90867 1352.86 0 1344.34 0H15.4309C6.90857 0 0 6.90868 0 15.431V260.569Z" fill="white"/>
<path d="M15.4309 276V272.914H193.764V276V279.086H15.4309V276ZM209.195 291.431H212.281V323.569H209.195H206.109V291.431H209.195ZM224.626 339V335.914H1344.57V339V342.086H224.626V339ZM1360 323.569H1356.91V184.116H1360H1363.09V323.569H1360ZM1359.77 183.884H1356.68V15.4309H1359.77H1362.85V183.884H1359.77ZM1344.34 0V3.08619H15.4309V0V-3.08619H1344.34V0ZM0 15.431H3.08618V260.569H0H-3.08618V15.431H0ZM15.4309 0V3.08619C8.61304 3.08619 3.08618 8.61312 3.08618 15.431H0H-3.08618C-3.08618 5.20423 5.2041 -3.08619 15.4309 -3.08619V0ZM1359.77 15.4309H1356.68C1356.68 8.61313 1351.16 3.08619 1344.34 3.08619V0V-3.08619C1354.56 -3.08619 1362.85 5.20421 1362.85 15.4309H1359.77ZM1359.88 184V187.086C1358.12 187.086 1356.68 185.653 1356.68 183.884H1359.77H1362.85C1362.85 182.244 1361.52 180.914 1359.88 180.914V184ZM1360 184.116H1356.91C1356.91 185.756 1358.24 187.086 1359.88 187.086V184V180.914C1361.65 180.914 1363.09 182.347 1363.09 184.116H1360ZM1344.57 339V335.914C1351.39 335.914 1356.91 330.387 1356.91 323.569H1360H1363.09C1363.09 333.796 1354.8 342.086 1344.57 342.086V339ZM209.195 323.569H212.281C212.281 330.387 217.808 335.914 224.626 335.914V339V342.086C214.4 342.086 206.109 333.796 206.109 323.569H209.195ZM193.764 276V272.914C203.991 272.914 212.281 281.204 212.281 291.431H209.195H206.109C206.109 284.613 200.582 279.086 193.764 279.086V276ZM15.4309 276V279.086C5.20422 279.086 -3.08618 270.796 -3.08618 260.569H0H3.08618C3.08618 267.387 8.61316 272.914 15.4309 272.914V276Z" fill="url(#paint0_linear_70_634)" mask="url(#path-1-inside-1_70_634)"/>
<defs>
<linearGradient id="paint0_linear_70_634" x1="1359.54" y1="7.85444" x2="424.655" y2="764.95" gradientUnits="userSpaceOnUse">
<stop stop-color="#EA4336"/>
<stop offset="0.335" stop-color="#4285F4"/>
<stop offset="0.645" stop-color="#34A853"/>
<stop offset="0.96" stop-color="#FAAB00"/>
</linearGradient>
</defs>
</svg>
