<svg width="38" height="24" viewBox="0 0 38 24" fill="none" xmlns="http://www.w3.org/2000/svg">
<path d="M20 17.4648C21.1046 17.4648 22 18.3603 22 19.4648V21.4648C22 22.5694 21.1046 23.4648 20 23.4648H18C16.8954 23.4648 16 22.5694 16 21.4648V19.4648C16 18.3603 16.8954 17.4648 18 17.4648H20ZM20 8.75488C21.1045 8.75488 21.9999 9.65042 22 10.7549V12.7549C22 13.8595 21.1046 14.7549 20 14.7549H18C16.8954 14.7549 16 13.8595 16 12.7549V10.7549C16.0001 9.65042 16.8955 8.75488 18 8.75488H20ZM20 0C21.1046 0 22 0.895431 22 2V4C22 5.10457 21.1046 6 20 6H18C16.8954 6 16 5.10457 16 4V2C16 0.895431 16.8954 3.22128e-08 18 0H20Z" fill="#69737D"/>
</svg>
